<svg xmlns="http://www.w3.org/2000/svg" width="24" height="24" viewBox="0 0 600 400">
<rect width="600" height="400" fill="#f00"/>
<rect width="240" height="400" fill="#060"/>
<g fill="#ff0" fill-rule="evenodd" stroke="#000" stroke-width="0.573" stroke-linecap="round" stroke-linejoin="round">
<path d="M300.826 139.086c-43.1 0-78.11 34.696-78.11 77.434 0 42.737 35.01 77.434 78.11 77.434 43.1 0 78.11-34.697 78.11-77.434 0-42.738-35.01-77.434-78.11-77.434"/>
<path d="M382.675 216.52c0 45.1-36.695 81.688-81.849 81.688s-81.85-36.59-81.85-81.688 36.695-81.687 81.85-81.687 81.85 36.59 81.85 81.687z"/>
<path d="M300.826 293.35c-42.952 0-77.85-34.57-77.85-77.106 0-42.534 34.898-77.106 77.85-77.106 42.953 0 77.85 34.572 77.85 77.106 0 42.535-34.897 77.106-77.85 77.106m0-3.256c41.319 0 74.85-33.23 74.85-73.85 0-40.62-33.531-73.85-74.85-73.85s-74.85 33.23-74.85 73.85c0 40.62 33.531 73.85 74.85 73.85"/>
<path d="M300.826 214.52c-42.493-38.025-38.833 2.223-78.17-36.589 39.337 14.582 18.994-56.69 75.126-37.144v100.944l3.045-100.944c60.066-16.364 39.152 56.71 74.86 38.025-38.43 36.59-32.396-4.37-74.86 35.708"/>
</g>
</svg>
